<svg xmlns="http://www.w3.org/2000/svg" viewBox="0 0 64 64" id="url">
  <g>
    <path d="M18 10a1 1 0 0 0-1 1v7a2 2 0 0 1-4 0v-7a1 1 0 0 0-2 0v7a4 4 0 0 0 8 0v-7a1 1 0 0 0-1-1zm20 10h-5v-9a1 1 0 0 0-2 0v10a1 1 0 0 0 1 1h6a1 1 0 0 0 0-2zm-8 9a14 14 0 1 0 14 14 14.015 14.015 0 0 0-14-14zm-5.209 3.206A2.982 2.982 0 0 0 27.75 35h1.46a1 1 0 0 1 0 2h-9.586a12.062 12.062 0 0 1 5.167-4.794zm14.357 18.542A1 1 0 0 1 38.81 50a.969.969 0 0 1 .934-1h.632a12.065 12.065 0 0 1-1.228 1.748zM41.3 47h-1.556a2.971 2.971 0 0 0-2.934 3 3.009 3.009 0 0 0 .919 2.165 11.94 11.94 0 0 1-6.629 2.779.988.988 0 0 1-.663-.944.969.969 0 0 1 .934-1h.609a3 3 0 0 0 0-6h-5.546a1 1 0 0 1 0-2h15.385a11.815 11.815 0 0 1-.519 2zm-14.866-4a3 3 0 0 0 0 6h5.546a1 1 0 0 1 0 2h-.609a2.984 2.984 0 0 0-2.787 3.909A11.957 11.957 0 0 1 18.7 39h10.51a3 3 0 0 0 0-6h-1.46a.99.99 0 0 1-.98-1 .964.964 0 0 1 .23-.6A11.951 11.951 0 0 1 42 43zM29 13.5a3.5 3.5 0 0 0-3.5-3.5H22a1 1 0 0 0-1 1v10a1 1 0 0 0 2 0v-2.865l4.36 3.634a1 1 0 0 0 1.28-1.538L24.762 17h.738a3.5 3.5 0 0 0 3.5-3.5zM23 15v-3h2.5a1.5 1.5 0 0 1 0 3z"></path>
    <circle cx="53" cy="43" r="1"></circle>
    <path d="M57 2H11a1 1 0 0 0-1 1v3H7a1 1 0 0 0-1 1v54a1 1 0 0 0 1 1h46a1 1 0 0 0 1-1v-3h3a1 1 0 0 0 1-1V3a1 1 0 0 0-1-1ZM8 8h34v7a3 3 0 0 0 3 3h7v6H8Zm36 7V9.414L50.586 16H45a1 1 0 0 1-1-1Zm12 41h-2v-9a1 1 0 0 0-2 0v13H8V26h44v13a1 1 0 0 0 2 0V17a1 1 0 0 0-.293-.707l-10-10A1 1 0 0 0 43 6H12V4h44Z"></path>
  </g>
</svg>
